<svg xmlns="http://www.w3.org/2000/svg" viewBox="0 0 600 440">
  <defs>
    <filter id="rgh" x="-15%" y="-15%" width="130%" height="130%">
      <feTurbulence type="fractalNoise" baseFrequency="0.016" numOctaves="3" seed="131" result="n"/>
      <feDisplacementMap in="SourceGraphic" in2="n" scale="7"/>
    </filter>
    <filter id="wc" x="-25%" y="-25%" width="150%" height="150%">
      <feTurbulence type="fractalNoise" baseFrequency="0.028" numOctaves="4" seed="61" result="n"/>
      <feDisplacementMap in="SourceGraphic" in2="n" scale="26" result="d"/>
      <feGaussianBlur in="d" stdDeviation="1.4"/>
    </filter>
  </defs>

  <g filter="url(#wc)">
    <ellipse cx="300" cy="70" rx="270" ry="48" fill="#b9c2e2" opacity=".32"/>
    <ellipse cx="300" cy="270" rx="200" ry="110" fill="#7fae8e" opacity=".35"/>
    <ellipse cx="300" cy="220" rx="120" ry="70" fill="#b9c2e2" opacity=".3"/>
    <ellipse cx="300" cy="130" rx="46" ry="26" fill="#7d8fc7" opacity=".4"/>
    <ellipse cx="300" cy="405" rx="270" ry="32" fill="#f2b117" opacity=".28"/>
    <ellipse cx="90" cy="380" rx="70" ry="26" fill="#f2b117" opacity=".2"/>
  </g>

  <g filter="url(#rgh)" fill="none" stroke="#1d2f66" stroke-linecap="round" stroke-linejoin="round">
    <!-- kopec -->
    <path d="M60 372 Q 300 96 540 372" stroke-width="3"/>
    <!-- kostolík na vrchole s múrom -->
    <path d="M282 148 L282 120 L302 120 L302 148" stroke-width="2.8"/>
    <path d="M278 120 L292 94 L306 120" stroke-width="2.8" fill="#1d2f66" fill-opacity=".85"/>
    <path d="M292 94 L292 82 M287 87 L297 87" stroke-width="2"/>
    <path d="M244 158 L244 140 L262 128 M340 158 L340 140 L322 128" stroke-width="2.4"/>
    <path d="M244 158 Q 292 170 340 158" stroke-width="2.6"/>
    <path d="M250 140 h10 v12 M330 140 h-10 v12" stroke-width="2"/>
    <!-- kaplnky na svahu -->
    <path d="M200 250 L200 232 Q 209 224 218 232 L218 250 Z" stroke-width="2.2"/>
    <path d="M262 300 L262 284 Q 270 277 278 284 L278 300 Z" stroke-width="2.2"/>
    <path d="M348 282 L348 266 Q 356 259 364 266 L364 282 Z" stroke-width="2.2"/>
    <path d="M410 322 L410 306 Q 418 299 426 306 L426 322 Z" stroke-width="2.2"/>
    <path d="M160 320 L160 305 Q 168 298 176 305 L176 320 Z" stroke-width="2.2"/>
    <!-- kľukatá cesta s procesiou -->
    <path d="M300 176 Q 240 220 280 260 Q 330 300 260 340 Q 210 366 160 372" stroke-width="2.2" stroke-dasharray="3 10"/>
    <path d="M283 254 l3 -8 M296 268 l3 -8 M270 330 l3 -8 M242 348 l3 -8 M220 358 l3 -8" stroke-width="2.4"/>
    <!-- obilné pole v popredí -->
    <path d="M70 400 q4 -18 0 -28 M86 402 q4 -18 0 -28 M102 400 q4 -16 0 -26 M500 398 q4 -16 0 -26 M516 400 q4 -18 0 -28 M532 396 q4 -16 0 -24" stroke-width="1.8"/>
    <path d="M66 372 q8 -6 12 -14 M96 374 q8 -6 12 -14 M510 372 q8 -6 12 -14" stroke-width="1.4"/>
    <!-- zem -->
    <path d="M40 386 Q 200 376 320 380 Q 460 386 566 376" stroke-width="2.4"/>
  </g>

  <g fill="#f2b117" opacity=".5"><circle cx="120" cy="120" r="2.4"/><circle cx="500" cy="130" r="2"/></g>
  <g fill="#7d8fc7" opacity=".5"><circle cx="200" cy="100" r="2"/><circle cx="420" cy="90" r="2.2"/><circle cx="560" cy="340" r="2.2"/></g>
  <g fill="#d8404a" opacity=".5"><circle cx="330" cy="110" r="1.8"/><circle cx="60" cy="330" r="2"/></g>
</svg>
